<svg width="326" height="110" viewBox="0 0 326 110" fill="none" xmlns="http://www.w3.org/2000/svg">
<path d="M38.8984 96V93.0469L42.7188 92.3906V65.5078L38.8984 64.8516V61.875H42.7188H52.2578C55.2734 61.875 57.8984 62.5938 60.1328 64.0312C62.3828 65.4688 64.1328 67.4453 65.3828 69.9609C66.6328 72.4766 67.2578 75.3516 67.2578 78.5859V79.3125C67.2578 82.4688 66.6562 85.3125 65.4531 87.8438C64.25 90.3594 62.5391 92.3516 60.3203 93.8203C58.1172 95.2734 55.5078 96 52.4922 96H38.8984ZM47.3359 92.3906H52.2578C54.4141 92.3906 56.2656 91.8047 57.8125 90.6328C59.3594 89.4453 60.5469 87.8672 61.375 85.8984C62.2188 83.9141 62.6406 81.7188 62.6406 79.3125V78.5391C62.6406 76.0547 62.2188 73.8359 61.375 71.8828C60.5469 69.9141 59.3594 68.3594 57.8125 67.2188C56.2656 66.0781 54.4141 65.5078 52.2578 65.5078H47.3359V92.3906Z" fill="#3E3232"/>
<path d="M85.9141 96.4922C83.7109 96.4922 81.7344 96.0703 79.9844 95.2266C78.2344 94.3828 76.7422 93.1953 75.5078 91.6641C74.2891 90.1172 73.3516 88.2891 72.6953 86.1797C72.0547 84.0703 71.7344 81.7422 71.7344 79.1953V78.7031C71.7344 76.1719 72.0547 73.8516 72.6953 71.7422C73.3516 69.6172 74.2891 67.7812 75.5078 66.2344C76.7422 64.6875 78.2344 63.4922 79.9844 62.6484C81.7344 61.8047 83.7109 61.3828 85.9141 61.3828C88.2422 61.3828 90.2891 61.8047 92.0547 62.6484C93.8203 63.4922 95.2969 64.6875 96.4844 66.2344C97.6875 67.7812 98.5938 69.6172 99.2031 71.7422C99.8125 73.8516 100.117 76.1719 100.117 78.7031V79.1953C100.117 81.7422 99.8125 84.0703 99.2031 86.1797C98.5938 88.2891 97.6875 90.1172 96.4844 91.6641C95.2969 93.1953 93.8203 94.3828 92.0547 95.2266C90.2891 96.0703 88.2422 96.4922 85.9141 96.4922ZM85.9141 92.6484C88.1797 92.6484 90.0078 92.0859 91.3984 90.9609C92.8047 89.8359 93.8359 88.2656 94.4922 86.25C95.1484 84.2188 95.4766 81.8672 95.4766 79.1953V78.6562C95.4766 76 95.1406 73.6719 94.4688 71.6719C93.8125 69.6562 92.7812 68.0859 91.375 66.9609C89.9688 65.8203 88.1484 65.25 85.9141 65.25C83.8672 65.25 82.1328 65.8203 80.7109 66.9609C79.2891 68.1016 78.2109 69.6797 77.4766 71.6953C76.7422 73.6953 76.375 76.0156 76.375 78.6562V79.1953C76.375 81.8516 76.7422 84.1953 77.4766 86.2266C78.2109 88.2422 79.2891 89.8203 80.7109 90.9609C82.1328 92.0859 83.8672 92.6484 85.9141 92.6484ZM155.336 96.4922C152.992 96.4922 150.898 96.0312 149.055 95.1094C147.211 94.1875 145.758 92.875 144.695 91.1719C143.633 89.4531 143.102 87.3984 143.102 85.0078V65.5078L139.281 64.8516V61.875H151.539V64.8516L147.719 65.5078V85.0078C147.719 86.7109 148.039 88.1406 148.68 89.2969C149.336 90.4531 150.242 91.3281 151.398 91.9219C152.555 92.5 153.891 92.7891 155.406 92.7891C156.938 92.7891 158.289 92.5 159.461 91.9219C160.648 91.3438 161.57 90.4766 162.227 89.3203C162.898 88.1641 163.234 86.7266 163.234 85.0078V65.5078L159.414 64.8516V61.875H171.672V64.8516L167.852 65.5078V85.0078C167.852 87.4766 167.328 89.5703 166.281 91.2891C165.25 92.9922 163.797 94.2891 161.922 95.1797C160.047 96.0547 157.852 96.4922 155.336 96.4922ZM183.625 96V93.0469L187.445 92.3906V65.3672H179.711L179.031 70.1016H175.562V61.875H203.922V70.1016H200.5L199.797 65.3672H192.062V92.3906L195.883 93.0469V96H183.625ZM220.094 96.4922C218.016 96.4922 216.016 96.1875 214.094 95.5781C212.172 94.9688 210.336 94.0312 208.586 92.7656V85.4766H212.172L212.945 90.8438C213.961 91.4688 215.062 91.9531 216.25 92.2969C217.438 92.6406 218.719 92.8125 220.094 92.8125C221.656 92.8125 222.977 92.5781 224.055 92.1094C225.148 91.625 225.984 90.9609 226.562 90.1172C227.141 89.2734 227.43 88.2891 227.43 87.1641C227.43 86.1172 227.18 85.1953 226.68 84.3984C226.18 83.6016 225.352 82.9062 224.195 82.3125C223.055 81.7031 221.492 81.1719 219.508 80.7188C217.164 80.1719 215.18 79.4453 213.555 78.5391C211.945 77.6172 210.719 76.5078 209.875 75.2109C209.047 73.8984 208.633 72.3984 208.633 70.7109C208.633 68.9297 209.102 67.3359 210.039 65.9297C210.992 64.5234 212.312 63.4141 214 62.6016C215.688 61.7891 217.656 61.3828 219.906 61.3828C222.297 61.3828 224.406 61.75 226.234 62.4844C228.078 63.2031 229.594 64.0781 230.781 65.1094V71.9297H227.195L226.422 67.0547C225.719 66.4922 224.844 66.0234 223.797 65.6484C222.75 65.2734 221.453 65.0859 219.906 65.0859C218.594 65.0859 217.438 65.3203 216.438 65.7891C215.438 66.2422 214.656 66.8828 214.094 67.7109C213.531 68.5391 213.25 69.5156 213.25 70.6406C213.25 71.625 213.5 72.4844 214 73.2188C214.516 73.9531 215.344 74.6016 216.484 75.1641C217.641 75.7109 219.18 76.2266 221.102 76.7109C224.695 77.6016 227.414 78.9219 229.258 80.6719C231.117 82.4062 232.047 84.5547 232.047 87.1172C232.047 88.9453 231.555 90.5703 230.57 91.9922C229.586 93.3984 228.195 94.5 226.398 95.2969C224.617 96.0938 222.516 96.4922 220.094 96.4922Z" fill="#7E6363"/>
<path d="M119.305 59.5078C121.648 59.5078 123.742 59.9688 125.586 60.8906C127.43 61.8125 128.883 63.125 129.945 64.8281C131.008 66.5469 131.539 68.6016 131.539 70.9922V90.4922L135.359 91.1484V94.125H123.102V91.1484L126.922 90.4922V70.9922C126.922 69.2891 126.602 67.8594 125.961 66.7031C125.305 65.5469 124.398 64.6719 123.242 64.0781C122.086 63.5 120.75 63.2109 119.234 63.2109C117.703 63.2109 116.352 63.5 115.18 64.0781C113.992 64.6562 113.07 65.5234 112.414 66.6797C111.742 67.8359 111.406 69.2734 111.406 70.9922V90.4922L115.227 91.1484V94.125H102.969V91.1484L106.789 90.4922V70.9922C106.789 68.5234 107.312 66.4297 108.359 64.7109C109.391 63.0078 110.844 61.7109 112.719 60.8203C114.594 59.9453 116.789 59.5078 119.305 59.5078Z" fill="#7E6363"/>
<path d="M2.27335 96V92.8359L13.453 80.4141C14.7968 78.9141 15.8358 77.6406 16.5702 76.5938C17.3202 75.5469 17.8437 74.5938 18.1405 73.7344C18.4374 72.8594 18.5858 71.9688 18.5858 71.0625C18.5858 69.3594 18.0702 67.9297 17.039 66.7734C16.0077 65.6016 14.5311 65.0156 12.6093 65.0156C10.6093 65.0156 9.04679 65.6172 7.92179 66.8203C6.81241 68.0234 6.25772 69.7266 6.25772 71.9297H1.82803L1.78116 71.7891C1.73429 69.8203 2.14835 68.0547 3.02335 66.4922C3.89835 64.9141 5.16397 63.6719 6.82022 62.7656C8.4921 61.8438 10.4765 61.3828 12.7733 61.3828C14.9296 61.3828 16.7811 61.7969 18.328 62.625C19.8905 63.4375 21.0937 64.5547 21.9374 65.9766C22.7811 67.3984 23.203 69.0312 23.203 70.875C23.203 72.125 22.953 73.3672 22.453 74.6016C21.9687 75.8359 21.2577 77.1016 20.3202 78.3984C19.3827 79.6953 18.2421 81.0625 16.8983 82.5L7.92179 92.2734L7.96866 92.3906H20.0858L20.4608 88.4766H24.3749V96H2.27335ZM39.5155 96V93.0469L43.3358 92.3906V88.125H28.0077V85.5234L43.0546 61.875H47.9296V84.5156H52.6405V88.125H47.9296V92.3906L51.7499 93.0469V96H39.5155ZM32.9296 84.5156H43.3358V68.4609L43.1952 68.4141L42.7265 69.6562L32.9296 84.5156Z" fill="#3E3232"/>
<path d="M318 0H288V107H318V0Z" fill="#7E6363"/>
<path d="M280.5 107C300.106 107 316 91.1061 316 71.5C316 51.8939 300.106 36 280.5 36C260.894 36 245 51.8939 245 71.5C245 91.1061 260.894 107 280.5 107Z" fill="#3E3232"/>
<path d="M280.5 7L319.904 49.75H241.096L280.5 7Z" fill="#503C3C"/>
<path d="M261.705 86V83.627L270.09 74.3105C271.098 73.1855 271.877 72.2305 272.428 71.4453C272.99 70.6602 273.383 69.9453 273.605 69.3008C273.828 68.6445 273.939 67.9766 273.939 67.2969C273.939 66.0195 273.553 64.9473 272.779 64.0801C272.006 63.2012 270.898 62.7617 269.457 62.7617C267.957 62.7617 266.785 63.2129 265.941 64.1152C265.109 65.0176 264.693 66.2949 264.693 67.9473H261.371L261.336 67.8418C261.301 66.3652 261.611 65.041 262.268 63.8691C262.924 62.6855 263.873 61.7539 265.115 61.0742C266.369 60.3828 267.857 60.0371 269.58 60.0371C271.197 60.0371 272.586 60.3477 273.746 60.9688C274.918 61.5781 275.82 62.416 276.453 63.4824C277.086 64.5488 277.402 65.7734 277.402 67.1562C277.402 68.0938 277.215 69.0254 276.84 69.9512C276.477 70.877 275.943 71.8262 275.24 72.7988C274.537 73.7715 273.682 74.7969 272.674 75.875L265.941 83.2051L265.977 83.293H275.064L275.346 80.3574H278.281V86H261.705ZM289.637 86V83.7852L292.502 83.293V80.0938H281.006V78.1426L292.291 60.4062H295.947V77.3867H299.48V80.0938H295.947V83.293L298.812 83.7852V86H289.637ZM284.697 77.3867H292.502V65.3457L292.396 65.3105L292.045 66.2422L284.697 77.3867Z" fill="white"/>
</svg>
